<?xml version="1.0" encoding="UTF-8" standalone="no"?><!DOCTYPE svg PUBLIC "-//W3C//DTD SVG 1.1//EN" "http://www.w3.org/Graphics/SVG/1.1/DTD/svg11.dtd"><svg width="100%" height="100%" viewBox="0 0 138 138" version="1.1" xmlns="http://www.w3.org/2000/svg" xmlns:xlink="http://www.w3.org/1999/xlink" xml:space="preserve" xmlns:serif="http://www.serif.com/" style="fill-rule:evenodd;clip-rule:evenodd;stroke-linejoin:round;stroke-miterlimit:2;"><g><path d="M137.985,68.993c0,-38.104 -30.889,-68.993 -68.993,-68.993c-38.103,0 -68.992,30.889 -68.992,68.993c-0,32.356 22.275,59.505 52.326,66.96l-0,-45.877l-14.227,-0l-0,-21.083l14.227,-0l-0,-9.085c-0,-23.483 10.627,-34.367 33.681,-34.367c4.371,-0 11.913,0.857 14.998,1.714l0,19.112c-1.628,-0.172 -4.456,-0.257 -7.97,-0.257c-11.313,-0 -15.684,4.285 -15.684,15.426l-0,7.457l22.535,-0l-3.871,21.083l-18.664,-0l-0,47.404c34.161,-4.126 60.634,-33.214 60.634,-68.487" style="fill-rule:nonzero;"/></g></svg>