<?xml version="1.0" encoding="UTF-8"?>
<svg xmlns="http://www.w3.org/2000/svg" version="1.1" viewBox="0 0 377.75 93.31">
  <defs>
    <style>
      .cls-1 {
        fill: none;
        stroke: white;
        stroke-miterlimit: 10;
        stroke-width: 1.22px;
      }

      .cls-2 {
        fill: white;
      }
    </style>
  </defs>
  <!-- Generator: Adobe Illustrator 28.7.8, SVG Export Plug-In . SVG Version: 1.2.0 Build 200)  -->
  <g>
    <g id="Layer_1">
      <path class="cls-2" d="M22.7,21.81h6.48c6.12,0,10.35,4.2,10.35,9.68v.05c0,5.48-4.23,9.74-10.35,9.74h-6.48v-19.47ZM29.18,39.94c5.42,0,8.84-3.7,8.84-8.35v-.06c0-4.62-3.42-8.4-8.84-8.4h-5.04v16.8h5.04Z"/>
      <path class="cls-2" d="M49.71,33.18v-11.38h1.45v11.24c0,4.59,2.47,7.23,6.59,7.23s6.48-2.39,6.48-7.09v-11.38h1.45v11.21c0,5.59-3.26,8.57-7.98,8.57s-7.98-2.95-7.98-8.4Z"/>
      <path class="cls-2" d="M76.71,21.81h8.18c2.39,0,4.31.75,5.48,1.92.92.92,1.48,2.22,1.48,3.62v.06c0,3.25-2.42,5.12-5.7,5.56l6.42,8.32h-1.83l-6.2-8.07h-6.37v8.07h-1.45v-19.47ZM84.73,31.9c3.25,0,5.67-1.64,5.67-4.45v-.05c0-2.62-2.06-4.26-5.59-4.26h-6.65v8.76h6.57Z"/>
      <path class="cls-2" d="M102.39,21.81h8.04c2.2,0,3.98.64,5.06,1.72.81.81,1.25,1.84,1.25,3.06v.06c0,2.64-1.73,3.98-3.31,4.62,2.34.61,4.39,1.95,4.39,4.65v.05c0,3.26-2.78,5.31-6.98,5.31h-8.46v-19.47ZM110.26,30.79c2.92,0,5.01-1.42,5.01-4.01v-.05c0-2.14-1.75-3.59-4.87-3.59h-6.57v7.65h6.43ZM110.9,39.94c3.34,0,5.45-1.53,5.45-3.98v-.05c0-2.39-2.09-3.78-5.93-3.78h-6.59v7.82h7.07Z"/>
      <path class="cls-2" d="M135.43,21.67h1.39l9.07,19.61h-1.58l-2.48-5.45h-11.49l-2.48,5.45h-1.5l9.07-19.61ZM141.21,34.52l-5.12-11.27-5.14,11.27h10.26Z"/>
      <path class="cls-2" d="M155.56,21.81h1.36l13.44,16.94v-16.94h1.39v19.47h-1.08l-13.71-17.3v17.3h-1.39v-19.47Z"/>
      <path class="cls-2" d="M195.75,38.44l.94-1.09c2.14,1.98,4.12,2.89,6.98,2.89s4.92-1.64,4.92-3.87v-.06c0-2.06-1.09-3.26-5.51-4.15-4.67-.94-6.57-2.53-6.57-5.48v-.05c0-2.89,2.64-5.12,6.26-5.12,2.84,0,4.7.78,6.68,2.36l-.92,1.14c-1.84-1.58-3.67-2.2-5.81-2.2-2.87,0-4.76,1.64-4.76,3.67v.05c0,2.06,1.06,3.31,5.68,4.26,4.51.92,6.4,2.53,6.4,5.37v.05c0,3.14-2.7,5.31-6.45,5.31-3.12,0-5.51-1.03-7.84-3.11Z"/>
      <path class="cls-2" d="M220.37,21.81h13.85v1.33h-12.41v7.65h11.15v1.33h-11.15v7.82h12.55v1.33h-13.99v-19.47Z"/>
      <path class="cls-2" d="M243.7,31.6v-.06c0-5.26,3.81-10.07,9.63-10.07,3.17,0,5.17.95,7.12,2.56l-.95,1.09c-1.53-1.34-3.31-2.34-6.26-2.34-4.73,0-8.04,4-8.04,8.71v.05c0,5.04,3.14,8.79,8.34,8.79,2.48,0,4.79-1.03,6.2-2.23v-5.59h-6.51v-1.33h7.9v7.51c-1.75,1.56-4.48,2.92-7.65,2.92-6.15,0-9.79-4.53-9.79-10.01Z"/>
      <path class="cls-2" d="M271.94,21.81h1.36l13.44,16.94v-16.94h1.39v19.47h-1.08l-13.71-17.3v17.3h-1.39v-19.47Z"/>
      <path class="cls-2" d="M299.66,21.81h1.45v19.47h-1.45v-19.47Z"/>
      <path class="cls-2" d="M312.65,21.81h1.36l13.44,16.94v-16.94h1.39v19.47h-1.08l-13.71-17.3v17.3h-1.39v-19.47Z"/>
      <path class="cls-2" d="M340.38,21.81h1.45v19.47h-1.45v-19.47Z"/>
      <path class="cls-2" d="M194.58,66.62v-.06c0-5.26,3.81-10.07,9.63-10.07,3.17,0,5.17.95,7.12,2.56l-.95,1.09c-1.53-1.34-3.31-2.34-6.26-2.34-4.73,0-8.04,4-8.04,8.71v.05c0,5.04,3.14,8.79,8.34,8.79,2.48,0,4.79-1.03,6.2-2.23v-5.59h-6.51v-1.33h7.9v7.51c-1.75,1.56-4.48,2.92-7.65,2.92-6.15,0-9.79-4.53-9.79-10.01Z"/>
      <path class="cls-2" d="M227.43,56.69h1.39l9.07,19.61h-1.58l-2.48-5.45h-11.49l-2.48,5.45h-1.5l9.07-19.61ZM233.21,69.54l-5.12-11.27-5.14,11.27h10.26Z"/>
      <path class="cls-2" d="M244.78,56.82h1.45v18.13h11.43v1.34h-12.88v-19.47Z"/>
      <path class="cls-2" d="M264.78,56.82h1.45v18.13h11.43v1.34h-12.88v-19.47Z"/>
      <path class="cls-2" d="M284.78,56.82h13.85v1.33h-12.41v7.65h11.15v1.33h-11.15v7.82h12.55v1.34h-13.99v-19.47Z"/>
      <path class="cls-2" d="M306.19,56.82h8.18c2.39,0,4.31.75,5.48,1.92.92.92,1.48,2.22,1.48,3.62v.06c0,3.25-2.42,5.12-5.7,5.56l6.42,8.32h-1.83l-6.2-8.07h-6.37v8.07h-1.45v-19.47ZM314.2,66.92c3.25,0,5.67-1.64,5.67-4.45v-.05c0-2.62-2.06-4.26-5.59-4.26h-6.65v8.76h6.57Z"/>
      <path class="cls-2" d="M334.73,68.59l-8.35-11.77h1.81l7.29,10.46,7.31-10.46h1.73l-8.35,11.74v7.73h-1.45v-7.71Z"/>
      <path class="cls-1" d="M19.81,68.11h152.61H19.81Z"/>
    </g>
  </g>
</svg>